<?xml version="1.0" encoding="UTF-8" standalone="no"?> <!-- Created with Vectornator for iOS (http://vectornator.io/) --><!DOCTYPE svg PUBLIC "-//W3C//DTD SVG 1.1//EN" "http://www.w3.org/Graphics/SVG/1.1/DTD/svg11.dtd">
<svg style="fill-rule:evenodd;clip-rule:evenodd;stroke-linecap:round;stroke-linejoin:round;" xmlns:vectornator="http://vectornator.io" xmlns:xlink="http://www.w3.org/1999/xlink" xmlns="http://www.w3.org/2000/svg" xml:space="preserve" version="1.1" viewBox="0 0 750 750">
<metadata>
<vectornator:setting key="DisplayWhiteBackground" value="1"/>
<vectornator:setting key="RulersVisible" value="1"/>
<vectornator:setting key="SnapToEdges" value="0"/>
<vectornator:setting key="Units" value="Pixels"/>
<vectornator:setting key="DynamicGuides" value="1"/>
<vectornator:setting key="CMYKEnabledKey" value="0"/>
<vectornator:setting key="SnapToGuides" value="1"/>
<vectornator:setting key="ShowGrid" value="0"/>
<vectornator:setting key="GridSpacing" value="36"/>
</metadata>
<defs>
<linearGradient y1="499.374" id="LinearGradient" x1="463.368" y2="499.374" x2="554.354" gradientUnits="userSpaceOnUse" gradientTransform="matrix(1 0 0 1 1.41188 -33.4544)">
<stop stop-color="#000000" offset="0"/>
<stop stop-color="#ffffff" offset="0.927419"/>
</linearGradient>
</defs>
<g id="Hero" vectornator:layerName="Hero">
<path d="M101.393+302.673L113.25+302.673L113.25+302.673L113.25+318.423L113.25+318.423L101.393+318.423L101.393+318.423L101.393+302.673L101.393+302.673Z" opacity="1" fill="#fb90ad"/>
<path d="M542.172+429.673L211.216+429.673C204.864+429.673+195.838+425.438+191.158+420.261L104.174+324.054C99.494+318.877+100.862+314.643+107.213+314.643L438.168+314.643C444.52+314.643+453.546+318.877+458.226+324.054L545.21+420.261C549.89+425.437+548.523+429.673+542.172+429.673Z" opacity="1" fill="#fb90ad"/>
<path d="M542.172+414.173L211.216+414.173C204.864+414.173+195.838+409.938+191.158+404.761L104.174+308.554C99.494+303.377+100.862+299.143+107.213+299.143L438.168+299.143C444.52+299.143+453.546+303.377+458.226+308.554L545.21+404.761C549.89+409.937+548.523+414.173+542.172+414.173Z" opacity="1" fill="#fbadad"/>
<path d="M226.203+403.485L202.901+403.485L192.857+392.906L216.159+392.906L226.203+403.485Z" opacity="0.7" fill="#fff1ef"/>
<path d="M255.199+403.485L231.897+403.485L221.853+392.906L245.155+392.906L255.199+403.485Z" opacity="0.7" fill="#fff1ef"/>
<path d="M284.196+403.485L260.894+403.485L250.849+392.906L274.152+392.906L284.196+403.485Z" opacity="0.7" fill="#1b4fe0"/>
<path d="M379.175+403.485L308.366+403.284L284.636+378.29L355.447+378.491L379.175+403.485Z" opacity="1" fill="#fb90ad"/>
<path d="M255.199+369.436L173.157+369.234L137.547+331.247L219.589+331.448L255.199+369.436Z" opacity="1" fill="#fb90ad"/>
<path d="M349.157+369.234L346.757+369.234L310.884+331.448L313.285+331.448L349.157+369.234Z" opacity="0.7" fill="#1b4fe0"/>
<path d="M212.706+389.071L189.404+389.071L179.36+378.491L202.662+378.491L212.706+389.071Z" opacity="0.7" fill="#fff1ef"/>
<path d="M241.703+389.071L218.4+389.071L208.356+378.491L231.658+378.491L241.703+389.071Z" opacity="0.7" fill="#fff1ef"/>
<path d="M270.699+389.071L247.397+389.071L237.353+378.491L260.655+378.491L270.699+389.071Z" opacity="0.7" fill="#fff1ef"/>
<path d="M332.542+369.234L330.142+369.234L294.269+331.448L296.67+331.448L332.542+369.234Z" opacity="0.7" fill="#1b4fe0"/>
<path d="M315.926+369.234L313.527+369.234L277.654+331.448L280.053+331.448L315.926+369.234Z" opacity="0.7" fill="#1b4fe0"/>
<path d="M299.311+369.234L296.912+369.234L261.039+331.448L263.438+331.448L299.311+369.234Z" opacity="0.7" fill="#1b4fe0"/>
<path d="M282.696+369.234L280.297+369.234L244.423+331.448L246.823+331.448L282.696+369.234Z" opacity="0.7" fill="#1b4fe0"/>
<path d="M268.063+345C267.76+344.688+267.356+344.54+266.956+344.552L266.956+344.55L264.621+344.55L264.621+345.758L265.344+345.835L262.261+350.237L264.66+350.237L268.009+347.116C268.615+346.55+268.639+345.597+268.063+345Z" opacity="0.7" fill="#1b4fe0"/>
<path d="M260.406+348.283L263.523+345.009C264.104+344.398+265.077+344.394+265.664+345L265.664+345C266.24+345.597+266.216+346.55+265.608+347.116L262.26+350.237L260.406+348.283Z" opacity="1" fill="#fff1ef"/>
<path d="M295.342+356.232C295.04+355.92+294.636+355.773+294.235+355.784L294.235+355.783L291.9+355.783L291.9+356.991L292.623+357.068L289.541+361.469L291.94+361.469L295.288+358.348C295.894+357.783+295.92+356.829+295.342+356.232Z" opacity="0.7" fill="#1b4fe0"/>
<path d="M287.685+359.517L290.802+356.242C291.383+355.632+292.357+355.628+292.943+356.233L292.943+356.233C293.519+356.83+293.495+357.784+292.888+358.349L289.54+361.47L287.685+359.517Z" opacity="1" fill="#fff1ef"/>
<path d="M295.892+339.31C295.59+338.998+295.186+338.85+294.785+338.862L294.785+338.86L292.451+338.86L292.451+340.068L293.173+340.145L290.091+344.547L292.49+344.547L295.838+341.426C296.444+340.86+296.469+339.907+295.892+339.31Z" opacity="0.7" fill="#1b4fe0"/>
<path d="M288.235+342.594L291.352+339.32C291.933+338.709+292.906+338.705+293.493+339.311L293.493+339.311C294.07+339.908+294.045+340.861+293.438+341.427L290.09+344.548L288.235+342.594Z" opacity="1" fill="#fff1ef"/>
<path d="M311.173+337.905C310.871+337.593+310.467+337.446+310.067+337.457L310.067+337.456L307.732+337.456L307.732+338.664L308.454+338.741L305.372+343.142L307.771+343.142L311.119+340.021C311.726+339.456+311.751+338.502+311.173+337.905Z" opacity="0.7" fill="#1b4fe0"/>
<path d="M303.516+341.188L306.633+337.914C307.214+337.304+308.188+337.3+308.774+337.905L308.774+337.905C309.351+338.502+309.327+339.456+308.719+340.021L305.371+343.142L303.516+341.188Z" opacity="1" fill="#fff1ef"/>
<path d="M128.166+675.012C150.448+676.731+191.206+714.248+229.22+716.455C280.906+719.455+337.045+697.288+378.21+707.007C419.374+716.726+496.449+694.622+528.024+695.955C559.597+697.288+585.211+709.288+629.805+706.622C660.011+704.816+668.432+678.426+681.69+677.588C685.408+677.353+688.454+676.92+690.951+676.368C693.919+675.711+693.61+668.907+690.612+668.907L122.238+668.907C120.17+668.907+119.926+673.602+121.97+674.094C123.637+674.496+125.675+674.82+128.166+675.012Z" opacity="0.7" fill="#f69999"/>
<path d="M647.152+650.431C646.572+659.539+650.884+668.95+643.73+669.396C634.211+669.991+612.135+669.719+611.76+669.533C609.722+668.525+611.387+662.275+617.378+660.839C628.347+658.211+630.398+646.595+630.398+646.595C637.74+647.812+647.526+644.543+647.152+650.431Z" opacity="1" fill="#2e3192"/>
<path d="M593.645+651.659C593.105+656.696+596.812+668.938+588.91+669.467C580.357+670.039+547.098+669.76+546.723+669.576C544.684+668.568+546.414+662.559+552.341+660.882C558.267+659.205+567.602+656.986+568.899+656.821C573.577+656.222+573.12+651.771+573.12+651.771C580.464+652.986+594.24+646.104+593.645+651.659Z" opacity="1" fill="#2e3192"/>
<path d="M610.94+667.821C610.951+668.633+611.223+669.267+611.76+669.533C612.135+669.719+634.211+669.991+643.73+669.396C645.437+669.29+646.487+668.668+647.111+667.666L610.94+667.821Z" opacity="1" fill="#1b1464"/>
<path d="M545.916+668.099C545.963+668.794+546.231+669.332+546.722+669.575C547.097+669.761+580.357+670.038+588.91+669.466C590.483+669.36+591.593+668.786+592.37+667.899L545.916+668.098L545.916+668.099Z" opacity="1" fill="#1b1464"/>
<path d="M576.644+669.773C581.872+669.727+586.43+669.633+588.91+669.467C596.812+668.938+593.105+656.696+593.645+651.659C593.814+650.092+592.836+649.516+591.183+649.467L583.67+656.178C584.086+663.518+580.103+667.614+576.644+669.773Z" opacity="0.5" fill="#0088ed"/>
<path d="M647.148+650.431C647.206+649.538+647.025+648.858+646.658+648.337L644.288+652.916C644.768+659.675+636.801+666.544+629.42+665.741C625.51+665.317+623.272+667.552+622.021+669.748C629.199+669.789+638.416+669.728+643.726+669.396C650.88+668.95+646.569+659.539+647.148+650.431Z" opacity="0.5" fill="#0088ed"/>
<path d="M588.219+381.9L608.549+518.367C608.549+518.367+628.922+641.68+630.399+646.596C632.013+651.963+646.248+656.381+647.146+649.953C652.877+608.92+653.206+529.864+651.549+513.901C649.778+496.84+673.243+392.367+658.66+381.598C644.077+370.83+588.219+381.9+588.219+381.9Z" opacity="1" fill="#c1332d"/>
<path d="M647.152+650.431C652.883+609.398+656.301+545.106+654.328+515.964C653.17+498.85+661.494+437.016+665.274+415.54C668.416+397.687+588.225+382.379+588.225+382.379L589.863+394.481C613.156+386.377+639.413+407.684+641.643+426.219C643.897+444.944+629.532+473.497+627.713+512.142C626.515+537.602+647.491+564.2+644.292+652.916C645.712+652.644+647.001+651.509+647.152+650.431Z" opacity="1" fill="#d73a76"/>
<path d="M589.632+123.969C589.632+123.969+582.645+157.876+589.827+169.436C597.009+180.994+606.954+177.476+611.462+180.138C612.793+180.924+616.23+184.367+613.696+188.505C604.892+202.881+625.793+214.391+653.678+194.57C657.427+191.906+649.156+184.799+644.269+179.035C639.671+173.61+634.531+167.667+631.693+161.207C625.841+147.884+626.136+130.27+619.921+123.838C613.705+117.408+589.632+123.969+589.632+123.969Z" opacity="0.5" fill="#f69999"/>
<path d="M563.501+237.493C568.104+217.978+572.422+204.66+574.571+194.517C575.757+188.919+571.597+183.55+570.026+179.254C568.287+174.508+569.165+171.074+571.79+170.144C574.687+169.115+582.456+165.919+583.06+163.894C585.126+156.976+582.905+148.911+585.715+149.028C590.474+149.226+585.683+171.103+590.641+175.516C593.475+178.039+605.987+176.888+606.071+180.134C606.242+186.646+596.864+175.132+592.014+191.426C589.855+198.681+590.758+204.394+580.433+245.167C579.291+249.672+562.435+242.016+563.501+237.493Z" opacity="0.5" fill="#f69999"/>
<path d="M639.696+185.316C635.098+179.891+636.292+179.892+633.455+173.432C627.603+160.109+626.137+130.268+619.922+123.838C613.706+117.406+589.633+123.967+589.633+123.967C589.633+123.967+586.983+136.846+586.628+149.436C586.37+149.193+586.071+149.042+585.715+149.027C582.905+148.911+585.126+156.975+583.06+163.894C582.456+165.919+574.687+169.115+571.79+170.143C569.165+171.074+568.287+174.507+570.026+179.253C571.598+183.548+575.758+188.918+574.571+194.517C572.422+204.66+568.104+217.978+563.501+237.493C562.435+242.015+579.291+249.672+580.431+245.167C590.755+204.394+589.852+198.68+592.012+191.427C596.863+175.133+606.24+186.647+606.069+180.135C606.052+179.486+605.533+179.014+604.699+178.652C607.416+179.016+609.806+179.16+611.462+180.138C612.793+180.925+616.23+184.368+613.696+188.506C604.892+202.882+609.348+215.338+637.233+195.517C640.982+192.851+644.581+191.08+639.696+185.316ZM590.64+175.515C588.839+173.912+588.326+170.002+588.173+165.667C588.613+167.085+589.158+168.357+589.827+169.434C592.853+174.304+596.369+176.493+599.762+177.6C596.173+177.143+592.107+176.821+590.64+175.515Z" opacity="0.5" fill="#f69999"/>
<path d="M573.996+421.667C573.996+421.667+561.328+489.263+561.371+499.339C561.414+509.414+573.75+639.353+573.121+651.77C572.809+657.925+591.851+657.413+593.645+651.659C595.194+646.688+600.177+525.887+605.497+508.518C610.816+491.149+671.885+386.17+665.161+377.06C658.435+367.951+573.996+421.667+573.996+421.667Z" opacity="1" fill="#c1332d"/>
<path d="M578.647+362.774C578.647+362.774+593.688+362.137+587.319+391.766L585.341+416.415C580.738+436.462+574.624+482.049+568.554+525.959C563.331+563.738+575.5+641.331+574.838+658.177C580.74+658.1+584.005+656.809+584.817+654.2C586.366+649.23+591.349+528.429+596.669+511.06C599.539+501.69+627.564+448.403+643.326+420.956L644.898+374.124C623.001+367.6+578.647+362.774+578.647+362.774Z" opacity="0.767857" fill="#d73a76"/>
<path d="M641.884+176.213C644.269+179.036+646.1+182.064+655.515+187.088C666.208+192.794+596.164+207.172+606.149+198.3C611.395+193.638+612.63+189.135+614.391+187.82C621.273+182.683+641.884+176.213+641.884+176.213Z" opacity="1" fill="#1b1464"/>
<path d="M566.835+224.104C558.403+248.696+554.593+255.128+554.593+255.128L577.376+249.799L585.708+227.791L566.835+224.104Z" opacity="1" fill="#2e3192"/>
<path d="M684.51+239.771C683.338+195.201+667.98+193.334+655.742+187.167C644.229+181.366+615.251+190.035+604.844+199.378C578.845+221.071+547.595+255.618+549.005+271.971C550.415+288.323+551.504+290.906+559.623+290.987C564.334+291.033+576.036+282.728+587.102+273.096L587.102+273.096C597.254+263.697+587.179+343.267+584.545+364.406C581.908+385.546+576.225+412.951+573.997+421.668C571.11+432.958+661.553+437.712+665.426+414.782C671.509+378.765+685.712+285.466+684.51+239.771Z" opacity="1" fill="#6970e0"/>
<path d="M570.082+268.754C569.893+263.291+566.221+258.223+562.968+257.387C560.687+256.8+559.135+255.587+553.672+257.46C550.419+263.474+548.65+268.824+549.009+272.989C549.121+274.283+549.277+275.518+549.453+276.725C550.727+288.833+552.368+290.915+559.623+290.987C564.334+291.033+576.036+282.728+587.103+273.096L587.103+273.096C588.556+271.751+589.594+272.234+590.299+274.104C586.266+258.425+577.475+266.276+570.082+268.754Z" opacity="0.5" fill="#2e3192"/>
<path d="M656.921+187.088C662.823+194.537+657.481+204.547+654.449+212.335C639.431+250.9+666.427+281.284+641.107+323.33C615.787+365.377+602.029+368.547+592.37+429.372C618.041+433.628+664.09+431.013+666.831+414.781C672.915+378.766+688.172+285.427+685.916+239.771C683.824+197.432+673.365+194.584+656.921+187.088Z" opacity="0.1375" fill="#8bdefc"/>
<path d="M596.743+98.0802C608.355+97.9995+603.224+109.6+616.308+107.867C623.92+106.86+624.647+112.825+630.253+117.266C635.861+121.707+647.13+122.831+643.168+134.439C639.206+146.045+632.505+163.43+637.092+170.199C638.703+172.575+623.577+177.774+620.616+175.287C615.605+171.076+607.514+163.13+607.514+163.13C610.182+161.457+612.717+152.104+608.274+151.027C603.54+149.88+601.489+157.223+601.489+157.223L595.307+155.468C595.863+142.642+587.021+142.554+587.021+142.554C587.648+133.287+562.092+118.656+571.417+106.604C576.492+100.046+586.409+111.502+586.39+106.961C586.354+98.7498+592.951+98.1065+596.743+98.0802Z" opacity="1" fill="#2e3192"/>
<path d="M630.755+165.461C622.452+143.242+637.201+136.846+616.174+123.936C595.157+111.032+584.448+133.175+570.206+116.554C573.787+126.007+587.459+135.716+586.999+142.528C586.999+142.528+595.842+142.617+595.284+155.442L601.466+157.197C601.466+157.197+603.519+149.853+608.252+151C612.695+152.077+610.158+161.43+607.492+163.103C607.492+163.103+615.583+171.05+620.594+175.261C622.461+176.829+629.159+175.341+633.454+173.433C632.775+171.072+631.871+168.445+630.755+165.461Z" opacity="0.5" fill="#2e3192"/>
<path d="M641.884+176.213C641.884+176.213+639.17+177.066+635.389+178.394C640.032+186.261+647.868+183.553+655.515+187.088C646.101+182.063+644.269+179.036+641.884+176.213Z" opacity="1" fill="#2e3192"/>
<g opacity="1">
<path d="M404.321+66.721L108.529+66.721C149.81+66.721+185.784+149.679+233.81+159.667C323.044+178.224+319.81+234.045+419.071+234.045L419.071+81.471C419.071+73.358+412.434+66.721+404.321+66.721Z" opacity="0.3" fill="#ffffff"/>
<path d="M435.502+278.707L110.95+278.707C102.838+278.707+96.201+272.07+96.201+263.957L96.201+63.203C96.201+55.091+102.838+48.453+110.95+48.453L435.502+48.453C443.615+48.453+450.252+55.09+450.252+63.203L450.252+263.958C450.252+272.07+443.615+278.707+435.502+278.707Z" opacity="0.76" fill="#fbadad"/>
<path d="M127.475+66.721L290.149+66.721C293.97+66.721+297.068+69.8185+297.068+73.6395L297.068+108.232C297.068+112.053+293.97+115.151+290.149+115.151L127.475+115.151C123.654+115.151+120.556+112.053+120.556+108.232L120.556+73.6395C120.556+69.8185+123.654+66.721+127.475+66.721Z" opacity="1" fill="#ffffff"/>
<path stroke="#e01b76" stroke-opacity="0.672257" stroke-width="1.33" d="M174.707+76.3791L208.812+76.3791L208.812+81.7805L174.707+81.7805L174.707+76.3791Z" fill="none" stroke-linecap="round" opacity="1" stroke-linejoin="round"/>
<path stroke="#e01b76" stroke-opacity="0.672257" stroke-width="1.33" d="M215.998+76.3791L255.384+76.3791L255.384+81.7805L215.998+81.7805L215.998+76.3791Z" fill="none" stroke-linecap="round" opacity="1" stroke-linejoin="round"/>
<path stroke="#e01b76" stroke-opacity="0.672257" stroke-width="1.33" d="M263.8+76.3791L273.227+76.3791L273.227+81.7805L263.8+81.7805L263.8+76.3791Z" fill="none" stroke-linecap="round" opacity="1" stroke-linejoin="round"/>
<path stroke="#e01b76" stroke-opacity="0.672257" stroke-width="1.33" d="M279.782+76.3791L288.262+76.3791L288.262+81.7805L279.782+81.7805L279.782+76.3791Z" fill="none" stroke-linecap="round" opacity="1" stroke-linejoin="round"/>
<path d="M311.063+66.721L369.449+66.721C371.603+66.721+373.349+68.4672+373.349+70.6212L373.349+159.68C373.349+161.834+371.603+163.58+369.449+163.58L311.063+163.58C308.909+163.58+307.163+161.834+307.163+159.68L307.163+70.6212C307.163+68.4672+308.909+66.721+311.063+66.721Z" opacity="1" fill="#ffffff"/>
<text x="0" font-family="Menlo-Regular" y="0" text-anchor="start" vectornator:text="The&#x20;patient&#x20;presents&#x20;symptoms&#x20;of&#x20;respiratory&#x20;diseases&#x20;such&#x20;as&#x20;kalamuzea&#x20;and&#x20;lipoduction&#x20;and&#x20;was&#x20;hieever,&#x20;discharged&#x20;from&#x20;the&#x20;UCI&#x20;last&#x20;week&#x20;because&#x20;the&#x20;hospital&#x20;system&#x20;is&#x20;overloaded&#x20;due&#x20;to&#x20;the&#x20;cotonavirus.&#xA;&#xA;Life&#x20;is&#x20;short&#x20;so&#x20;stop&#x20;reading&#x20;this&#x20;because&#x20;you&#x20;wont&#x20;find&#x20;anything&#x20;useful&#x20;in&#x20;it,&#x20;im&#x20;just&#x20;literally&#x20;trying&#x20;to&#x20;fill&#x20;this&#x20;space&#x20;here&#x20;so&#x20;that&#x20;it&#x20;looks&#x20;bette&#x20;overall.&#x20;The&#x20;thing&#x20;im&#x20;wondering&#x20;about&#x20;right&#x20;niw&#x20;js&#x20;if&#x20;design&#x20;does&#x20;really&#x20;matter.&#x20;I&#x20;guess&#x20;that&#x20;if&#x20;you&#x20;are&#x20;reading&#x20;this&#x20;you&#x20;care&#x20;about&#x20;design&#x20;because&#x20;you&#x20;have&#x20;probably&#x20;zoomed&#x20;in&#x20;a&#x20;lot&#x20;to&#x20;be&#x20;able&#x20;to&#x20;read&#x20;this&#x20;piece&#x20;of&#x20;text.&#x20;I&#x20;think&#x20;you&#x20;should&#x20;stop&#x20;right&#x20;mow&#x20;smd&#x20;take&#x20;into&#x20;account&#x20;that&#x20;your&#x20;time&#x20;is&#x20;very&#x20;precious&#x20;and&#x20;you&#x20;shouldnt&#x20;waste&#x20;it&#x20;on&#x20;menial&#x20;stuff,&#x20;uf&#x20;i&#x20;like&#x20;the&#x20;word&#x20;menial.&#x20;It&#x20;makes&#x20;me&#x20;feel&#x20;intelligent.&#xA;&#xA;Well,&#x20;lomg&#x20;stot&#x20;i&#x20;have&#x20;never&#x20;seen&#x20;someone&#x20;as&#x20;bored&#x20;as&#x20;you&#x20;bevause&#x20;i&#x20;would&#x20;have&#x20;stipeed&#x20;resding&#x20;long&#x20;ago.&#xA;&#xA;Im&#x20;stille&#x20;writing&#x20;brufff&#x20;this&#x20;is&#x20;really&#x20;boring&#x20;bla&#x20;bla&#x20;bla&#x20;blah&#x20;nnsjsns.&#xA;Hajjddkek&#xA;&#xA;Kdldl&#x20;kekdme&#x20;emekd&#x20;kekdmememdkdk&#x20;keoowowowlelels&#x20;ueueu&#x20;eur&#x20;uuree&#xA;Leldl,mdmd,dm mdkdm e idke e didkeke&#xA;Ldld&#xA;&#xA;" fill="#72787e" font-size="2" vectornator:width="52.785" opacity="1" transform="matrix(1 0 0 1 312.993 74.8042)">
<tspan x="0" y="2" textLength="39.7354">
The patient presents symptoms of </tspan>
<tspan x="0" y="4" textLength="51.7764">
respiratory diseases such as kalamuzea and </tspan>
<tspan x="0" y="6" textLength="48.1641">
lipoduction and was hieever, discharged </tspan>
<tspan x="0" y="8" textLength="52.9805">
from the UCI last week because the hospital </tspan>
<tspan x="0" y="10" textLength="38.5312">
system is overloaded due to the </tspan>
<tspan x="0" y="12" textLength="14.4492">
cotonavirus.
</tspan>
<tspan x="0" y="14" textLength="0">

</tspan>
<tspan x="0" y="16" textLength="51.7764">
Life is short so stop reading this because </tspan>
<tspan x="0" y="18" textLength="48.1641">
you wont find anything useful in it, im </tspan>
<tspan x="0" y="20" textLength="49.3682">
just literally trying to fill this space </tspan>
<tspan x="0" y="22" textLength="49.3682">
here so that it looks bette overall. The </tspan>
<tspan x="0" y="24" textLength="49.3682">
thing im wondering about right niw js if </tspan>
<tspan x="0" y="26" textLength="51.7764">
design does really matter. I guess that if </tspan>
<tspan x="0" y="28" textLength="51.7764">
you are reading this you care about design </tspan>
<tspan x="0" y="30" textLength="50.5723">
because you have probably zoomed in a lot </tspan>
<tspan x="0" y="32" textLength="49.3682">
to be able to read this piece of text. I </tspan>
<tspan x="0" y="34" textLength="49.3682">
think you should stop right mow smd take </tspan>
<tspan x="0" y="36" textLength="43.3477">
into account that your time is very </tspan>
<tspan x="0" y="38" textLength="45.7559">
precious and you shouldnt waste it on </tspan>
<tspan x="0" y="40" textLength="52.9805">
menial stuff, uf i like the word menial. It </tspan>
<tspan x="0" y="42" textLength="31.3066">
makes me feel intelligent.
</tspan>
<tspan x="0" y="44" textLength="0">

</tspan>
<tspan x="0" y="46" textLength="50.5723">
Well, lomg stot i have never seen someone </tspan>
<tspan x="0" y="48" textLength="44.5518">
as bored as you bevause i would have </tspan>
<tspan x="0" y="50" textLength="30.1025">
stipeed resding long ago.
</tspan>
<tspan x="0" y="52" textLength="0">

</tspan>
<tspan x="0" y="54" textLength="48.1641">
Im stille writing brufff this is really </tspan>
<tspan x="0" y="56" textLength="38.5312">
boring bla bla bla blah nnsjsns.
</tspan>
<tspan x="0" y="58" textLength="10.8369">
Hajjddkek
</tspan>
<tspan x="0" y="60" textLength="0">

</tspan>
<tspan x="0" y="62" textLength="39.7354">
Kdldl kekdme emekd kekdmememdkdk </tspan>
<tspan x="0" y="64" textLength="37.3271">
keoowowowlelels ueueu eur uuree
</tspan>
<tspan x="0" y="66" textLength="43.3477">
Leldl,mdmd,dm mdkdm e idke e didkeke
</tspan>
<tspan x="0" y="68" textLength="4.81641">
Ldld
</tspan>
<tspan x="0" y="70" textLength="0">

</tspan>
</text>
<path d="M309.163+173.142L338.091+173.142L338.091+173.142L338.091+258.413L338.091+258.413L309.163+258.413L309.163+258.413L309.163+173.142L309.163+173.142Z" opacity="1" fill="#ffffff"/>
<path d="M343.644+173.142L372.572+173.142L372.572+173.142L372.572+258.413L372.572+258.413L343.644+258.413L343.644+258.413L343.644+173.142L343.644+173.142Z" opacity="1" fill="#ffffff"/>
<path d="M378.125+173.142L407.054+173.142L407.054+173.142L407.054+258.413L407.054+258.413L378.125+258.413L378.125+258.413L378.125+173.142L378.125+173.142Z" opacity="1" fill="#ffffff"/>
<path d="M412.607+173.142L441.535+173.142L441.535+173.142L441.535+258.413L441.535+258.413L412.607+258.413L412.607+258.413L412.607+173.142L412.607+173.142Z" opacity="1" fill="#ffffff"/>
<path d="M309.163+229.164L338.091+229.164L338.091+229.164L338.091+258.681L338.091+258.681L309.163+258.681L309.163+258.681L309.163+229.164L309.163+229.164Z" opacity="1" fill="#ffc2d1"/>
<path d="M343.644+203.22L372.572+203.22L372.572+203.22L372.572+258.703L372.572+258.703L343.644+258.703L343.644+258.703L343.644+203.22L343.644+203.22Z" opacity="1" fill="#ffc2ff"/>
<path d="M378.125+195.42L407.054+195.42L407.054+195.42L407.054+258.695L407.054+258.695L378.125+258.695L378.125+258.695L378.125+195.42L378.125+195.42Z" opacity="1" fill="#ffa3ff"/>
<path d="M412.607+181.885L441.535+181.885L441.535+181.885L441.535+258.703L441.535+258.703L412.607+258.703L412.607+258.703L412.607+181.885L412.607+181.885Z" opacity="1" fill="#ff005d"/>
<path stroke="#000002" stroke-width="0.1" d="M387.684+83.8639L434.546+83.8639C437.854+83.8639+440.535+86.3564+440.535+89.431L440.535+146.959C440.535+150.034+437.854+152.526+434.546+152.526L387.684+152.526C384.376+152.526+381.695+150.034+381.695+146.959L381.695+89.431C381.695+86.3564+384.376+83.8639+387.684+83.8639Z" fill="#ffffff" stroke-linecap="butt" opacity="1" stroke-linejoin="round"/>
<path stroke="#000002" stroke-width="0.1" d="M387.299+83.0798C384.207+83.0798+381.695+85.7867+381.695+89.1186L381.695+146.487C381.695+149.819+384.207+152.526+387.299+152.526L434.931+152.526C438.023+152.526+440.535+149.819+440.535+146.487L440.535+89.1186C440.535+85.7867+438.023+83.0798+434.931+83.0798L387.299+83.0798ZM412.318+88.1849C413.121+88.1849+413.776+88.8707+413.776+89.7116L413.776+90.475C413.776+91.3159+413.121+92.0018+412.318+92.0018C413.121+92.0018+413.776+92.6876+413.776+93.5285L413.776+94.2919C413.776+95.1328+413.121+95.8186+412.318+95.8186C413.121+95.8186+413.776+96.5045+413.776+97.3454L413.776+98.1087C413.776+98.9497+413.121+99.6355+412.318+99.6355C413.121+99.6355+413.776+100.321+413.776+101.162C413.765+100.977+413.811+100.775+413.868+100.59C414.107+99.7846+414.927+99.3313+415.69+99.5878C415.747+99.6057+421.563+101.466+427.63+99.5878C428.41+99.3492+429.179+99.8263+429.407+100.637C429.635+101.449+429.225+102.26+428.45+102.498C426.092+103.226+423.768+103.5+421.751+103.5C417.826+103.5+414.956+102.558+414.779+102.498C414.204+102.307+413.833+101.8+413.776+101.21L413.776+101.926C413.776+102.767+413.121+103.452+412.318+103.452C413.121+103.452+413.776+104.138+413.776+104.979L413.776+105.742C413.776+106.583+413.121+107.269+412.318+107.269C413.121+107.269+413.776+107.955+413.776+108.796L413.776+109.559C413.776+110.4+413.121+111.086+412.318+111.086C413.121+111.086+413.776+111.772+413.776+112.613L413.776+113.376C413.776+114.217+413.121+114.903+412.318+114.903C413.121+114.903+413.776+115.589+413.776+116.43L413.776+117.193C413.776+118.034+413.121+118.72+412.318+118.72C413.121+118.72+413.776+119.406+413.776+120.247L413.776+121.01C413.776+121.857+413.121+122.537+412.318+122.537C413.121+122.537+413.776+123.217+413.776+124.063L413.776+124.827C413.776+125.107+413.68+125.364+413.549+125.59C415.417+125.203+417.929+124.529+419.154+124.159C419.723+123.992+420.208+123.783+420.703+123.586C421.7+123.187+422.765+122.775+423.893+122.775C427.818+122.775+430.546+126.151+430.546+130.982C430.546+136.266+426.57+137.786+422.298+138.615C420.219+139.021+419.296+139.88+418.425+142.194C417.354+145.05+414.722+147.203+412.318+147.203C409.909+147.203+407.283+145.056+406.212+142.194C405.34+139.88+404.417+139.021+402.338+138.615C398.066+137.786+394.09+136.266+394.09+130.982C394.09+126.151+396.818+122.775+400.743+122.775C401.871+122.775+402.931+123.187+403.933+123.586C404.423+123.783+404.919+123.992+405.483+124.159C406.707+124.529+409.219+125.203+411.088+125.59C410.957+125.364+410.86+125.107+410.86+124.827L410.86+124.063C410.86+123.217+411.515+122.537+412.318+122.537C411.515+122.537+410.86+121.857+410.86+121.01L410.86+120.247C410.86+119.406+411.515+118.72+412.318+118.72C411.515+118.72+410.86+118.034+410.86+117.193L410.86+116.43C410.86+115.589+411.515+114.903+412.318+114.903C411.515+114.903+410.86+114.217+410.86+113.376L410.86+112.613C410.86+111.772+411.515+111.086+412.318+111.086C411.515+111.086+410.86+110.4+410.86+109.559L410.86+108.796C410.86+107.955+411.515+107.269+412.318+107.269C411.515+107.269+410.86+106.583+410.86+105.742L410.86+104.979C410.86+104.138+411.515+103.452+412.318+103.452C411.515+103.452+410.86+102.767+410.86+101.926L410.86+101.21C410.809+101.8+410.433+102.307+409.857+102.498C409.681+102.558+406.81+103.5+402.885+103.5C400.869+103.5+398.544+103.226+396.186+102.498C395.411+102.26+395.001+101.443+395.229+100.637C395.457+99.8263+396.277+99.3492+397.052+99.5878C403.153+101.472+408.889+99.6057+408.946+99.5878C409.709+99.3313+410.575+99.7846+410.814+100.59C410.871+100.775+410.871+100.977+410.86+101.162C410.86+100.321+411.515+99.6355+412.318+99.6355C411.515+99.6355+410.86+98.9497+410.86+98.1087L410.86+97.3454C410.86+96.5045+411.515+95.8186+412.318+95.8186C411.515+95.8186+410.86+95.1328+410.86+94.2919L410.86+93.5285C410.86+92.6876+411.515+92.0018+412.318+92.0018C411.515+92.0018+410.86+91.3159+410.86+90.475L410.86+89.7116C410.86+88.8707+411.515+88.1849+412.318+88.1849ZM399.376+93.4331C399.564+93.4092+399.775+93.4212+399.969+93.4808C405.762+95.2699+408.644+93.6418+408.672+93.6239C409.367+93.2184+410.279+93.4748+410.678+94.1965C411.076+94.9181+410.814+95.8246+410.131+96.248C410.028+96.3136+408.291+97.3931+404.981+97.3931C403.386+97.3931+401.421+97.1068+399.103+96.3912C398.328+96.1526+397.918+95.3356+398.146+94.5304C398.317+93.9221+398.812+93.4987+399.376+93.4331ZM415.417+93.4331C415.605+93.4569+415.793+93.5166+415.964+93.6239C416.055+93.6716+418.932+95.2521+424.668+93.4808C425.442+93.2422+426.263+93.7193+426.491+94.5304C426.718+95.3415+426.308+96.1526+425.534+96.3912C423.215+97.1068+421.25+97.3931+419.655+97.3931C416.345+97.3931+414.608+96.3136+414.506+96.248C413.816+95.8186+413.594+94.8704+414.004+94.1487C414.312+93.612+414.859+93.3556+415.417+93.4331ZM392.222+105.647C392.41+105.647+392.626+105.659+392.814+105.742C400.988+109.303+408.729+105.826+408.809+105.79C409.55+105.45+410.398+105.784+410.723+106.554C411.048+107.323+410.729+108.217+409.994+108.557C409.755+108.671+405.921+110.418+400.652+110.418C397.941+110.418+394.842+109.935+391.675+108.557C390.934+108.229+390.592+107.377+390.9+106.601C391.134+106.017+391.652+105.653+392.222+105.647ZM415.371+105.647C415.559+105.665+415.742+105.737+415.918+105.838C416.009+105.886+421.671+108.85+432.005+105.695C432.785+105.456+433.56+105.933+433.782+106.744C434.004+107.556+433.6+108.414+432.825+108.653C428.957+109.834+425.659+110.227+422.982+110.227C417.616+110.227+414.728+108.611+414.551+108.51C413.845+108.104+413.571+107.15+413.959+106.41C414.249+105.856+414.807+105.593+415.371+105.647ZM398.055+113.281C398.243+113.281+398.459+113.299+398.647+113.376C405.403+116.299+408.325+113.77+408.445+113.662C409.043+113.12+409.966+113.185+410.495+113.806C411.025+114.426+410.985+115.338+410.404+115.905C410.29+116.018+408.371+117.813+404.48+117.813C402.617+117.813+400.299+117.396+397.508+116.191C396.761+115.869+396.425+115.016+396.733+114.235C396.967+113.651+397.485+113.287+398.055+113.281ZM415.189+113.281C415.559+113.263+415.901+113.382+416.192+113.662C416.345+113.806+419.279+116.281+425.989+113.376C426.73+113.054+427.596+113.454+427.903+114.235C428.211+115.016+427.875+115.869+427.129+116.191C424.343+117.396+422.019+117.813+420.156+117.813C416.266+117.813+414.346+116.018+414.232+115.905C413.645+115.332+413.634+114.372+414.187+113.758C414.46+113.454+414.819+113.299+415.189+113.281ZM402.338+128.167C401.467+128.137+400.612+128.554+400.151+129.359C399.41+130.654+399.894+132.437+401.199+133.367C402.503+134.291+404.15+134.035+404.89+132.747C405.631+131.459+405.198+129.622+403.888+128.691C403.398+128.346+402.862+128.184+402.338+128.167ZM422.298+128.167C421.774+128.184+421.239+128.346+420.749+128.691C419.439+129.622+419.006+131.453+419.746+132.747C420.487+134.035+422.133+134.291+423.437+133.367C424.742+132.437+425.226+130.654+424.485+129.359C424.024+128.554+423.17+128.137+422.298+128.167Z" fill="#000000" stroke-linecap="butt" opacity="0.444629" stroke-linejoin="round"/>
<path d="M136.071+104.606L158.083+104.864L158.083+106.763L153.098+108.921L146.887+110.007L140.931+108.921C140.931+108.921+137.188+107.562+136.071+106.763C135.216+106.152+136.071+104.606+136.071+104.606Z" opacity="1" fill="#fbadad"/>
<path d="M141.393+84.6682L152.52+84.6682L152.52+97.2033L141.393+97.2033L141.393+84.6682Z" opacity="1" fill="#bf360c"/>
<path d="M141.393+84.6682L152.52+84.6682L152.52+97.2033L141.393+97.2033L141.393+84.6682Z" opacity="1" fill="#bf360c"/>
<path d="M141.393+84.6682L152.52+84.6682L152.52+97.2033L141.393+97.2033L141.393+84.6682Z" opacity="1" fill="#4e342e"/>
<path d="M146.956+99.9889C145.432+99.9889+143.479+95.8105+143.479+95.8105L143.479+91.6322L150.434+91.6322L150.434+95.8105C150.434+95.8105+148.48+99.9889+146.956+99.9889" opacity="1" fill="#ff9800"/>
<path d="M153.215+83.9718C153.215+78.6536+140.697+80.5088+140.697+83.9718L140.697+88.8466C140.697+92.3095+143.498+95.1141+146.956+95.1141C150.415+95.1141+153.215+92.3095+153.215+88.8466L153.215+83.9718Z" opacity="1" fill="#ffb74d"/>
<path d="M146.956+77.0078C142.732+77.0078+136.525+79.3772+136.525+93.2235L141.393+96.5069L141.393+87.4538L149.738+82.579L152.52+86.061L152.52+96.5069L157.388+92.3285C157.388+89.5266+156.918+78.4006+149.738+78.4006L149.043+77.0078L146.956+77.0078Z" opacity="1" fill="#795548"/>
<path d="M146.956+100.685C143.881+100.685+143.479+95.8105+143.479+95.8105C143.479+95.8105+145.223+98.5961+146.956+98.5961C148.69+98.5961+150.434+95.8105+150.434+95.8105C150.434+95.8105+150.031+100.685+146.956+100.685" opacity="1" fill="#ffb74d"/>
<path d="M149.043+88.8466C149.043+89.2301+149.355+89.543+149.738+89.543C150.121+89.543+150.434+89.2301+150.434+88.8466C150.434+88.463+150.121+88.1502+149.738+88.1502C149.355+88.1502+149.043+88.463+149.043+88.8466" opacity="1" fill="#784719"/>
<path d="M143.479+88.8466C143.479+89.2301+143.792+89.543+144.175+89.543C144.558+89.543+144.87+89.2301+144.87+88.8466C144.87+88.463+144.558+88.1502+144.175+88.1502C143.792+88.1502+143.479+88.463+143.479+88.8466" opacity="1" fill="#784719"/>
<path d="M146.956+99.9889C145.432+99.9889+143.479+95.8105+143.479+95.8105L143.479+91.6322L150.434+91.6322L150.434+95.8105C150.434+95.8105+148.48+99.9889+146.956+99.9889" opacity="1" fill="#ff9800"/>
<path d="M153.215+83.9718C153.215+78.6536+140.697+80.5088+140.697+83.9718L140.697+88.8466C140.697+92.3095+143.498+95.1141+146.956+95.1141C150.415+95.1141+153.215+92.3095+153.215+88.8466L153.215+83.9718Z" opacity="1" fill="#ffb74d"/>
<path d="M146.956+77.0078C142.732+77.0078+136.525+79.3772+136.525+93.2235L141.393+96.5069L141.393+87.4538L149.738+82.579L152.52+86.061L152.52+96.5069L157.388+92.3285C157.388+89.5266+156.918+78.4006+149.738+78.4006L149.043+77.0078L146.956+77.0078Z" opacity="1" fill="#795548"/>
<path d="M146.956+100.685C143.881+100.685+143.479+95.8105+143.479+95.8105C143.479+95.8105+145.223+98.5961+146.956+98.5961C148.69+98.5961+150.434+95.8105+150.434+95.8105C150.434+95.8105+150.031+100.685+146.956+100.685" opacity="1" fill="#ffb74d"/>
<path d="M149.043+88.8466C149.043+89.2301+149.355+89.543+149.738+89.543C150.121+89.543+150.434+89.2301+150.434+88.8466C150.434+88.463+150.121+88.1502+149.738+88.1502C149.355+88.1502+149.043+88.463+149.043+88.8466" opacity="1" fill="#784719"/>
<path d="M143.479+88.8466C143.479+89.2301+143.792+89.543+144.175+89.543C144.558+89.543+144.87+89.2301+144.87+88.8466C144.87+88.463+144.558+88.1502+144.175+88.1502C143.792+88.1502+143.479+88.463+143.479+88.8466" opacity="1" fill="#784719"/>
<path d="M150.434+95.8105C150.434+95.8105+149.738+98.5961+146.956+98.5961C144.175+98.5961+143.479+95.8105+143.479+95.8105C143.479+95.8105+135.829+97.1925+135.829+104.864L158.083+104.864C158.083+97.2197+150.434+95.8105+150.434+95.8105" opacity="1" fill="#fbadad"/>
<path d="M146.956+99.9889C145.432+99.9889+143.479+95.8105+143.479+95.8105L143.479+91.6322L150.434+91.6322L150.434+95.8105C150.434+95.8105+148.48+99.9889+146.956+99.9889" opacity="1" fill="#ff98b6"/>
<path d="M153.215+83.9718C153.215+78.6536+140.697+80.5088+140.697+83.9718L140.697+88.8466C140.697+92.3095+143.498+95.1141+146.956+95.1141C150.415+95.1141+153.215+92.3095+153.215+88.8466L153.215+83.9718Z" opacity="1" fill="#ffb7c0"/>
<path d="M146.956+77.0078C142.732+77.0078+136.525+79.3772+136.525+93.2235L141.393+96.5069L141.393+87.4538L149.738+82.579L152.52+86.061L152.52+96.5069L157.388+92.3285C157.388+89.5266+156.918+78.4006+149.738+78.4006L149.043+77.0078L146.956+77.0078Z" opacity="1" fill="#795548"/>
<path d="M146.956+100.685C143.881+100.685+143.479+95.8105+143.479+95.8105C143.479+95.8105+145.223+98.5961+146.956+98.5961C148.69+98.5961+150.434+95.8105+150.434+95.8105C150.434+95.8105+150.031+100.685+146.956+100.685" opacity="1" fill="#fbadad"/>
<path d="M146.956+102.078C150.257+102.078+151.526+98.5172+151.789+96.2077C150.985+95.9139+150.434+95.8105+150.434+95.8105C150.434+95.8105+150.031+100.685+146.956+100.685C143.881+100.685+143.479+95.8105+143.479+95.8105C143.479+95.8105+142.928+95.9112+142.124+96.205C142.384+98.5118+143.653+102.078+146.956+102.078Z" opacity="1" fill="#01579b"/>
<path d="M149.043+88.8466C149.043+88.463+149.355+88.1502+149.738+88.1502C150.121+88.1502+150.434+88.463+150.434+88.8466C150.434+89.2301+150.121+89.543+149.738+89.543C149.355+89.543+149.043+89.2301+149.043+88.8466M143.479+88.8466C143.479+89.2301+143.792+89.543+144.175+89.543C144.558+89.543+144.87+89.2301+144.87+88.8466C144.87+88.463+144.558+88.1502+144.175+88.1502C143.792+88.1502+143.479+88.463+143.479+88.8466" opacity="1" fill="#784719"/>
<path stroke="#e01b26" stroke-width="2.05" d="M127.894+90.9358C127.894+80.403+136.429+71.8644+146.956+71.8644C157.484+71.8644+166.019+80.403+166.019+90.9358C166.019+101.469+157.484+110.007+146.956+110.007C136.429+110.007+127.894+101.469+127.894+90.9358Z" fill="none" stroke-linecap="butt" opacity="1" stroke-linejoin="round"/>
<path d="M147.432+109.034" opacity="1" fill="#4fc3f7"/>
<path stroke="#e01b76" stroke-opacity="0.672257" stroke-width="1.33" d="M174.707+100.606L215.998+100.606L215.998+106.007L174.707+106.007L174.707+100.606Z" fill="none" stroke-linecap="round" opacity="1" stroke-linejoin="round"/>
<path stroke="#e01b76" stroke-opacity="0.672257" stroke-width="1.33" d="M222.507+100.606L288.262+100.606L288.262+105.034L222.507+105.034L222.507+100.606Z" fill="none" stroke-linecap="round" opacity="1" stroke-linejoin="round"/>
<path stroke="#e01b76" stroke-opacity="0.672257" stroke-width="1.33" d="M174.707+88.6784L215.998+88.6784L215.998+94.0798L174.707+94.0798L174.707+88.6784Z" fill="none" stroke-linecap="round" opacity="1" stroke-linejoin="round"/>
<path stroke="#e01b76" stroke-opacity="0.672257" stroke-width="1.33" d="M222.507+88.6784L236.504+88.6784L236.504+94.0798L222.507+94.0798L222.507+88.6784Z" fill="none" stroke-linecap="round" opacity="1" stroke-linejoin="round"/>
<path stroke="#e01b76" stroke-opacity="0.672257" stroke-width="1.33" d="M242.735+88.6784L288.262+88.6784L288.262+94.0798L242.735+94.0798L242.735+88.6784Z" fill="none" stroke-linecap="round" opacity="1" stroke-linejoin="round"/>
<path stroke="#e01b76" stroke-opacity="0.672257" stroke-width="1.33" d="M174.707+100.606L215.998+100.606L215.998+106.007L174.707+106.007L174.707+100.606Z" fill="none" stroke-linecap="round" opacity="1" stroke-linejoin="round"/>
<path d="M296.994+191.028C278.693+191.077+265.36+206.213+244.384+207.276C223.409+208.34+214.473+200.186+189.309+200.56C164.145+200.934+155.431+219.263+120.543+219.393L120.629+258.916L297.142+258.448L296.994+191.028Z" opacity="0.980357" fill="#e01b26"/>
<path d="M120.78+128.132L125.876+128.132L125.876+128.132L125.876+173.826L125.876+173.826L120.78+173.826L120.78+173.826L120.78+128.132L120.78+128.132Z" opacity="1" fill="#ffffff"/>
<path d="M163.259+128.132L168.356+128.132L168.356+128.132L168.356+173.826L168.356+173.826L163.259+173.826L163.259+173.826L163.259+128.132L163.259+128.132Z" opacity="1" fill="#ffffff"/>
<path d="M205.739+128.132L210.835+128.132L210.835+128.132L210.835+173.826L210.835+173.826L205.739+173.826L205.739+173.826L205.739+128.132L205.739+128.132Z" opacity="1" fill="#ffffff"/>
<path d="M248.218+128.132L253.315+128.132L253.315+128.132L253.315+173.826L253.315+173.826L248.218+173.826L248.218+173.826L248.218+128.132L248.218+128.132Z" opacity="1" fill="#ffffff"/>
<path d="M290.698+128.132L295.795+128.132L295.795+128.132L295.795+173.826L295.795+173.826L290.698+173.826L290.698+173.826L290.698+128.132L290.698+128.132Z" opacity="1" fill="#ffffff"/>
<path d="M119.505+141.399L119.505+134.333C119.505+133.354+121.217+132.56+123.328+132.56L123.328+132.56C125.439+132.56+127.15+133.354+127.15+134.333L127.15+141.399C127.15+142.378+125.439+143.172+123.328+143.172L123.328+143.172C121.218+143.172+119.505+142.378+119.505+141.399Z" opacity="1" fill="#ff725d"/>
<path d="M161.985+161.469L161.985+147.347C161.985+146.368+163.696+145.574+165.807+145.574L165.807+145.574C167.919+145.574+169.629+146.368+169.629+147.347L169.629+161.469C169.629+162.449+167.919+163.243+165.807+163.243L165.807+163.243C163.697+163.243+161.985+162.449+161.985+161.469Z" opacity="1" fill="#ff725d"/>
<path d="M246.944+150.058L246.944+140.07C246.944+139.091+248.655+138.297+250.766+138.297L250.766+138.297C252.878+138.297+254.588+139.091+254.588+140.07L254.588+150.058C254.588+151.038+252.878+151.832+250.766+151.832L250.766+151.832C248.655+151.832+246.944+151.038+246.944+150.058Z" opacity="1" fill="#ff725d"/>
<path d="M289.423+150.058L289.423+146.682C289.423+145.703+291.135+144.909+293.245+144.909L293.245+144.909C295.357+144.909+297.068+145.703+297.068+146.682L297.068+150.058C297.068+151.038+295.357+151.832+293.245+151.832L293.245+151.832C291.135+151.832+289.423+151.038+289.423+150.058Z" opacity="1" fill="#ff725d"/>
<path d="M204.464+164.529L204.464+134.97C204.464+133.99+206.176+133.196+208.287+133.196L208.287+133.196C210.398+133.196+212.109+133.99+212.109+134.97L212.109+164.529C212.109+165.509+210.398+166.303+208.287+166.303L208.287+166.303C206.176+166.303+204.464+165.509+204.464+164.529Z" opacity="1" fill="#ff725d"/>
<path d="M120.556+229.665C138.857+229.665+146.652+210.671+167.629+211.774C188.606+212.877+207.903+246.283+233.067+246.619C258.231+246.955+262.178+229.624+297.067+229.665L297.067+258.703L120.556+258.703L120.556+229.665Z" opacity="1" fill="#ffffff"/>
</g>
<path d="M423.491+359.162C360.157+352.736+355.616+352.278+350.116+348.778C344.616+345.278+336.066+339.845+329.427+339.22C322.786+338.595+315.816+343.511+314.491+346.449C313.166+349.387+326.387+349.439+330.157+350.553C334.02+351.694+336.206+352.461+335.824+353.807C335.203+355.994+329.418+352.684+327.605+352.371C325.792+352.058+325.449+354.329+326.324+354.985C327.199+355.642+336.999+360.496+341.583+360.32C346.166+360.145+347.586+358.911+355.488+361.328C363.389+363.745+416.366+380.995+416.366+380.995L423.491+359.162Z" opacity="1" fill="#e5a6a6"/>
<path d="M409.318+367.573C409.318+367.573+352.484+357.24+344.651+350.556C337.808+344.718+330.074+343.369+318.089+342.677C316.296+343.948+314.985+345.341+314.484+346.452C313.16+349.39+326.381+349.442+330.151+350.556C334.014+351.697+336.2+352.464+335.818+353.81C335.197+355.997+329.412+352.687+327.599+352.374C325.786+352.061+325.443+354.333+326.318+354.989C327.193+355.645+336.993+360.499+341.576+360.324C346.16+360.148+347.58+358.915+355.481+361.331C363.383+363.748+416.359+380.998+416.359+380.998L420.286+368.966L409.318+367.573Z" fill-opacity="0.618304" fill="#fc8b8b" opacity="0.5"/>
<path d="M396.318+322.532C396.318+322.532+354.369+309.584+342.386+300.735C316.075+281.303+279.435+235.788+273.653+237.149C269.434+238.142+280.57+244.875+279.434+253.493C279.261+254.803+272.061+264.03+278.781+269.36C287.966+276.647+291.724+271.772+296.546+277.259C303.994+285.734+323.332+316.367+330.017+320.881C335.116+324.324+391.328+350.553+391.328+350.553L396.318+322.532Z" opacity="0.975" fill="#f69999"/>
<path d="M365.765+311.651C358.631+311.925+354.599+331.227+366.781+339.166C378.961+347.105+407.028+362.434+407.954+376.36C408.93+391.032+406.166+397.92+422.201+411.338C436.624+423.407+440.596+444.709+427.858+448.131C427.858+448.131+405.453+460.345+412.261+461.153C428.233+463.05+435.343+468.285+449.866+475.202C464.39+482.118+485.49+487.417+491.995+485.807C503.18+483.04+505.479+483.318+503.248+461.756C501.14+441.38+499.379+384.825+496.877+366.069C493.263+338.983+488.9+353.134+486.408+353.466C482.194+354.029+380.411+311.089+365.765+311.651Z" opacity="1" fill="#ffffff"/>
<path d="M422.131+257.787C422.131+257.787+418.395+283.825+419.476+293.837C421.036+308.284+423.511+315.731+430.283+316.294C437.616+316.903+436.513+335.527+431.946+333.87C425.543+331.547+455.532+346.45+455.532+346.45C455.532+346.45+473.315+322.933+465.707+302.118C458.099+281.304+447.812+264.012+440.159+257.786C432.506+251.561+422.131+257.787+422.131+257.787Z" opacity="1" fill="#f69999"/>
<path d="M413.713+267.514C413.858+274.88+424.907+288.82+427.157+290.198C427.157+290.198+432.463+292.782+433.407+293.054C433.407+293.054+439.657+285.377+443.244+289.595C447.447+294.539+438.701+300.731+440.491+307.22C443.834+319.341+450.654+314.917+450.252+333.2C450.046+342.571+435.457+360.214+446.107+368.355C458.329+377.698+464.26+374.9+475.315+385.486C486.065+395.78+497.608+397.634+513.007+392.215C530.49+386.062+531.431+354.341+526.657+347.803C514.507+331.161+502.156+335.136+507.192+305.801C512.063+277.428+481.368+276.97+476.633+266.989C471.497+256.159+468.613+252.299+458.644+247.745C435.504+237.175+413.397+251.509+413.713+267.514Z" opacity="1" fill="#d35fbc"/>
<path d="M349.123+511.897C350.691+523.186+358.168+548.442+358.894+575.075C359.771+607.218+354.006+641.366+357.881+655.387C360.172+663.679+358.101+668.907+356.337+668.907C353.826+668.907+336.02+668.931+328.275+668.907C326.223+668.901+320.481+669.063+319.947+665.623C319.088+660.095+340.495+658.796+342.002+652.437C343.617+645.621+338.561+630.83+335.129+614.16C327.07+575.026+310.88+520.001+317.776+506.011C318.796+503.944+335.843+484.865+348.021+492.169C360.212+499.48+348.279+505.826+349.123+511.897Z" opacity="1" fill="#df9b9b"/>
<path d="M339.403+540.306L324.841+568.91C328.362+584.297+332.26+600.235+335.128+614.163C338.56+630.832+343.616+645.622+342.001+652.437C340.494+658.795+319.087+660.093+319.946+665.623C320.48+669.062+326.222+668.899+328.274+668.906C334.53+668.926+347.344+668.914+353.367+668.908C346.404+668.694+346.286+661.18+349.587+656.251C352.905+651.296+352.713+597.67+339.403+540.306Z" opacity="0.5" fill="#e09a9a"/>
<path d="M393.709+483.502C393.709+483.502+336.328+495.178+328.241+513.153C320.792+529.711+305.92+645.792+295.474+651.133C285.2+656.388+257.96+662.259+263.6+667.627C265.988+669.9+305.261+668.527+309.157+668.52C317.053+668.505+311.26+656.684+313.171+653.67C318.909+644.622+339.921+599.571+349.991+572.647C364.1+534.918+362.859+518.25+365.241+516.715C369.536+513.949+393.709+483.502+393.709+483.502Z" opacity="1" fill="#e0aeae"/>
<path d="M306.866+660.496C301.989+661.819+298.366+650.523+291.641+650.874L291.641+650.874C279.733+656.25+258.564+662.066+263.6+667.436C265.988+669.982+303.547+669.052+307.443+669.114C316.818+669.26+312.888+659.469+312.764+654.41L312.764+654.41C312.764+654.41+311.742+659.172+306.866+660.496Z" fill-opacity="0.0152845" fill="#b25148" opacity="1"/>
<path d="M306.866+661.433C301.989+662.614+298.366+652.529+291.641+652.843L291.641+652.843C279.733+657.642+258.564+662.834+263.6+667.628C265.988+669.901+303.547+669.071+307.443+669.126C316.818+669.257+312.888+660.516+312.764+655.999L312.764+655.999C312.764+655.999+311.742+660.251+306.866+661.433Z" opacity="1" fill="#fc8bec"/>
<path d="M424.449+448.33C388.089+454.094+350.557+474.223+329.712+488.403C312.797+499.911+309.106+547.147+309.163+551.058C309.264+557.997+309.603+565.976+324.692+576.22C341.953+587.938+374.251+557.34+374.251+547.07C374.251+526.903+374.251+529.125+374.251+529.125C374.251+521.407+380.811+515.181+388.833+515.288L481.056+516.716C504.007+517.735+504.868+484.401+504.023+475.028C502.017+452.781+441.376+445.646+424.449+448.33Z" opacity="1" fill="#ffffff"/>
<path d="M450.25+442.431C454.345+423.098+435.489+406.098+450.25+392.521C465.012+378.944+477.239+344.681+465.739+331.431C454.239+318.181+464.989+286.431+454.989+277.181C444.989+267.931+416.739+265.681+419.278+252.798C415.684+256.753+413.613+261.566+413.711+266.542C413.783+270.211+416.562+275.512+419.61+280.079C419.268+285.05+419.136+289.738+419.474+292.865C421.034+307.312+423.509+314.759+430.281+315.322C436.698+315.855+436.654+330.183+433.483+332.643C433.482+332.644+433.482+332.645+433.481+332.646C433.476+332.649+433.469+332.652+433.463+332.656C433.298+332.781+433.123+332.864+432.942+332.922C431.358+333.647+428.385+334.163+420.905+331.349C416.037+329.518+398.762+327.491+380.611+324.462C367.381+322.255+353.686+319.516+343.989+315.932C320.989+307.432+310.239+281.932+302.989+273.932C296.779+267.08+288.336+258.82+278.524+254.404C276.769+257.695+273.534+264.229+278.779+268.389C287.964+275.676+291.722+270.801+296.544+276.288C303.992+284.763+323.33+315.395+330.015+319.91C334.624+323.023+382.652+345.44+391.509+349.581C396.316+363.436+410.628+363.479+409.468+375.388C406.789+402.903+407.708+396.948+423.49+410.366C437.656+422.41+441.576+443.643+429.136+447.134C428.541+447.199+427.985+447.274+427.471+447.359C392.489+453.123+356.379+473.252+336.324+487.432C320.05+498.94+316.499+502.532+316.554+506.443C313.149+513.35+315.372+530.263+319.466+550.326C311.946+590.364+302.662+646.486+295.474+650.163C285.2+655.418+257.96+661.289+263.6+666.657C264.45+667.467+269.986+667.812+276.928+667.924C291.857+659.255+302.898+661.246+307.518+648.114C315.08+626.614+328.241+512.182+369.824+482.531C411.407+452.88+446.155+461.764+450.25+442.431Z" opacity="0.0869206" fill="#f69999"/>
<path d="M354.004+660.177C350.233+661.456+347.431+650.534+342.23+650.874L342.23+650.874C333.021+656.072+317.568+660.862+316.107+668.622C315.379+672.489+350.697+669.921+353.71+669.98C357.513+670.055+358.689+667.081+358.933+663.531C359.155+660.312+358.611+656.619+358.566+654.292L358.566+654.292C358.566+654.292+357.775+658.897+354.004+660.177Z" opacity="1" fill="#fc8bec"/>
<path d="M441.894+527.08L453.889+527.08L453.889+527.08L453.889+663.957L453.889+663.957L441.894+663.957L441.894+663.957L441.894+527.08L441.894+527.08Z" opacity="1" fill="#8bdefc"/>
<path d="M447.891+527.08L453.889+527.08L453.889+527.08L453.889+663.957L453.889+663.957L447.891+663.957L447.891+663.957L447.891+527.08L447.891+527.08Z" opacity="1" fill="#00ace8"/>
<path d="M455.021+513.374L410.604+513.374C402.714+513.374+396.318+519.77+396.318+527.66L396.318+527.66L469.307+527.66C469.307+519.771+462.911+513.374+455.021+513.374Z" opacity="1" fill="#8bdefc"/>
<path d="M545.486+405.464L499.608+405.464L496.082+407.499L489.226+426.564L480.143+481.472L470.582+504.873L430.521+527.659C430.521+527.659+469.164+527.659+486.798+527.659C532.548+527.659+542.548+475.207+542.192+455.54C541.893+439.082+542.948+416+550.702+409.486C554.004+406.714+549.34+401.854+545.486+405.464Z" opacity="1" fill="#e077f4"/>
<path d="M396.859+513.374C441.894+513.374+476.585+486.374+479.325+455.374C482.065+424.374+485.315+404.048+498.759+403.961C509.773+403.89+541.005+403.877+551.934+403.875C554.052+403.874+555.766+405.441+555.766+407.374L555.766+407.374C555.766+407.374+515.516+404.179+501.974+407.374C490.085+410.178+484.296+441.211+487.154+455.541C493.66+488.157+462.601+527.66+419.071+527.66C375.197+527.66+396.859+513.374+396.859+513.374Z" opacity="1" fill="#fc8bec"/>
<path d="M499.429+669.963L396.859+669.963L396.859+669.963C396.859+665.06+400.834+661.085+405.736+661.085L490.552+661.085C495.454+661.085+499.429+665.06+499.429+669.963L499.429+669.963Z" opacity="1" fill="#8bdefc"/>
<path d="M464.78+527.66C474.285+527.66+484.032+527.66+490.74+527.66C536.49+527.66+546.49+475.208+546.133+455.541C545.834+439.083+546.889+416.001+554.644+409.487C557.946+406.714+553.282+401.853+549.427+405.464L545.324+405.464C522.074+433.412+520.107+447.232+513.525+483.894C506.072+525.405+464.825+527.657+464.78+527.66Z" opacity="0.3" fill="url(#LinearGradient)"/>
<path d="M459.488+669.974L499.466+669.974C499.466+665.071+495.491+661.096+490.588+661.096L428.896+661.096C440.384+664.387+451.477+667.622+459.488+669.974Z" opacity="1" fill="#00ace8"/>
<path d="M124.972+249.721L56.92+249.721C54.764+249.721+53+247.957+53+245.8L53+177.747C53+175.591+54.764+173.826+56.92+173.826L124.973+173.826C127.13+173.826+128.894+175.591+128.894+177.747L128.894+245.8C128.893+247.957+127.13+249.721+124.972+249.721Z" opacity="0.7" fill="#fbadad"/>
<path d="M90.946+183.448C75.966+183.448+63.822+195.592+63.822+210.573C63.822+225.554+75.966+237.698+90.946+237.698C105.926+237.698+118.071+225.554+118.071+210.573C118.071+195.592+105.926+183.448+90.946+183.448ZM90.946+231.345C79.473+231.345+70.174+222.045+70.174+210.572C70.174+199.1+79.474+189.8+90.946+189.8C102.418+189.8+111.718+199.1+111.718+210.572C111.718+222.045+102.419+231.345+90.946+231.345Z" opacity="1" fill="#ffffff"/>
<path d="M111.718+210.572C111.718+217.381+108.441+223.422+103.378+227.21C102.136+228.139+101.735+229.818+102.493+231.171L102.624+231.404C103.522+233.007+105.626+233.451+107.102+232.355C113.756+227.413+118.071+219.499+118.071+210.572C118.071+196.768+107.759+185.372+94.418+183.668C92.582+183.434+90.946+184.831+90.946+186.681L90.946+186.954C90.946+188.501+92.112+189.774+93.647+189.974C103.843+191.297+111.718+200.015+111.718+210.572Z" opacity="1" fill="#ff3d3d"/>
<text x="0" font-family="Menlo-Regular" y="0" text-anchor="start" vectornator:text="Texto" fill="#fbadad" font-size="145" vectornator:width="20" opacity="0.7" transform="matrix(1 0 0 1 70.7453 229.698)"/>
<path stroke="#d3f9cb" stroke-width="2.13" d="M80.7453+211.464L89.4743+221.698L101.393+200.3" fill="none" stroke-linecap="butt" opacity="0.896429" stroke-linejoin="round"/>
</g>
</svg>
